<svg width="179" height="196" viewBox="0 0 179 196" fill="none" xmlns="http://www.w3.org/2000/svg">
<g id="Asset 1 1" clip-path="url(#clip0_1_219)">
<g id="Group">
<g id="Layer 2">
<g id="Capa 1">
<path id="Vector" d="M10.0684 144.747C8.64827 145.55 7.19635 145.651 6.81167 144.978L2.60796 137.563C2.22329 136.889 3.06367 135.694 4.47874 134.889C5.89886 134.087 7.35832 133.983 7.73794 134.654L11.9416 142.068C12.3263 142.742 11.4835 143.942 10.0684 144.747Z" fill="#2B242A"/>
<path id="Vector_2" d="M4.75736 133.531C4.75736 133.531 2.93895 135.665 5.77453 140.664C8.61011 145.663 11.3788 145.198 11.3788 145.198C11.3788 145.198 43.7375 125.175 48.0356 122.742C52.3336 120.309 48.3139 111.143 43.1287 114.088C37.9434 117.033 4.75736 133.531 4.75736 133.531Z" fill="#BC7BFB"/>
<g id="Vector_3" style="mix-blend-mode:soft-light">
<path d="M10.9064 144.13C16.5023 140.67 42.6824 124.499 46.5154 122.32L46.5958 122.272C42.5377 119.97 10.49 143.189 10.9064 144.13Z" fill="white"/>
</g>
<g id="Vector_4" style="mix-blend-mode:multiply">
<path d="M11.2842 143.209C10.6643 141.112 10.5433 138.934 11.4999 136.904C12.7105 134.32 14.8297 132.315 16.9828 130.497C22.0796 126.201 27.4773 122.506 34.0602 120.972C38.908 119.847 44.2406 119.703 48.6233 122.315C51.9402 119.411 48.0502 111.296 43.1288 114.089C37.9485 117.023 4.75998 133.526 4.75998 133.526C4.75998 133.526 2.94155 135.66 5.77713 140.659C8.61271 145.658 11.3814 145.193 11.3814 145.193L11.9166 144.86C11.6657 144.326 11.4543 143.774 11.2842 143.209Z" fill="#BC7BFB"/>
</g>
<g id="Group_2" style="mix-blend-mode:soft-light">
<g id="Vector_5" style="mix-blend-mode:soft-light">
<path d="M13.8712 143.66L4.49126 137.693C4.67675 138.337 4.91659 138.964 5.20818 139.567L12.7355 144.358C13.0496 144.18 13.4415 143.92 13.8712 143.66Z" fill="white"/>
</g>
<g id="Vector_6" style="mix-blend-mode:soft-light">
<path d="M18.5632 140.761L6.12071 132.845L4.86354 133.482L17.4225 141.469C17.7968 141.232 18.1762 140.998 18.5632 140.761Z" fill="white"/>
</g>
<g id="Vector_7" style="mix-blend-mode:soft-light">
<path d="M24.797 136.912L13.0075 129.418C12.5775 129.627 12.1702 129.841 11.7503 130.055L23.6588 137.627L24.797 136.912Z" fill="white"/>
</g>
<g id="Vector_8" style="mix-blend-mode:soft-light">
<path d="M31.0385 133.074L19.8565 125.967L18.6044 126.607L29.875 133.776L31.0385 133.074Z" fill="white"/>
</g>
<g id="Vector_9" style="mix-blend-mode:soft-light">
<path d="M37.2905 129.24L26.764 122.537L25.5119 123.178L36.137 129.922L37.2905 129.24Z" fill="white"/>
</g>
<g id="Vector_10" style="mix-blend-mode:soft-light">
<path d="M43.5577 125.413L33.5629 119.086C33.1555 119.287 32.7331 119.494 32.3158 119.729L42.4169 126.108L43.5577 125.413Z" fill="white"/>
</g>
<g id="Vector_11" style="mix-blend-mode:soft-light">
<path d="M47.3535 120.017L40.3603 115.572L39.1284 116.222L48.607 122.244L47.3535 120.017Z" fill="white"/>
</g>
</g>
<path id="Vector_12" d="M53.7635 118.94C58.5541 116.221 97.5123 116.712 108.118 117.067C106.049 114.249 83.9826 106.996 83.9826 106.996C83.9826 106.996 88.2463 111.266 81.79 111.573C72.9362 112 62.6286 112.188 60.5711 112.23C57.3008 112.284 56.9833 110.582 58.388 108.433C59.2404 107.124 64.7446 98.2888 69.9585 90.7061C72.5742 86.9034 75.061 91.3348 75.061 91.3348C75.061 91.3348 83.3883 60.494 78.7585 65.2969C73.4264 76.4233 54.4188 107.992 49.2209 110.924C44.023 113.857 48.9703 121.65 53.7635 118.94Z" fill="#352E35"/>
<path id="Vector_13" d="M103.367 45.5659C124.253 33.7191 148.863 37.6619 158.345 54.3789C167.329 70.2213 159.465 91.8678 140.838 104.143C141.618 105.225 142.507 106.279 143.174 107.425C163.987 93.7127 172.739 69.5747 162.719 51.895C152.148 33.2526 124.689 28.8421 101.384 42.0621C98.6378 43.615 96.0181 45.3823 93.5497 47.3475C94.343 48.4419 95.196 49.4918 96.1048 50.4924C98.3879 48.6563 100.817 47.0087 103.367 45.5659Z" fill="#BC7BFB"/>
<path id="Vector_14" d="M161.99 70.9027L161.06 71.425L158.933 67.7178L161.931 65.9958C161.909 65.7337 161.88 65.4741 161.851 65.2145L158.586 67.0692L156.472 63.3619L160.199 61.2448L161.651 63.796C161.521 63.0276 161.365 62.272 161.179 61.514L160.85 60.9057L161.016 60.8114C160.952 60.5722 160.885 60.3381 160.82 60.0863L160.506 60.2646L158.389 56.5372L159.254 56.0581L158.94 55.4194L158.06 55.9288L155.945 52.1963L156.697 51.7683L156.273 51.1883L155.591 51.5755L153.689 48.2806C153.141 47.734 152.57 47.2078 151.955 46.6969L152.424 47.5566L148.691 49.6712L146.607 45.9284L149.075 44.5297C148.852 44.3823 148.624 44.2323 148.397 44.0949L146.258 45.3101L144.357 41.9597C143.922 41.7453 143.465 41.5765 143.012 41.3975L139.443 43.4103L137.326 39.6829L136.266 39.4621L132.611 41.546L131.067 38.8239L130.217 38.7759L132.003 41.8748L128.27 43.9894L126.156 40.2569L128.85 38.7308C128.363 38.7235 127.879 38.7238 127.39 38.7342L125.776 39.6488L125.308 38.8269L124.524 38.887L125.156 40.0029L121.423 42.1175L119.935 39.4985L119.195 39.6365L120.8 42.4767L117.09 44.5836L114.975 40.8511L115.656 40.4639C114.601 40.7549 113.544 41.0763 112.5 41.4227L110.275 42.6839L110.077 42.3849L109.398 42.6788L109.647 43.1162L105.917 45.1753L105.489 44.4238C105.273 44.5309 105.063 44.6372 104.86 44.7426L105.296 45.5168L101.574 47.6238L101.148 46.8798L100.545 47.2616L100.948 47.9754L97.2204 50.0925L97.0067 49.7735C96.8134 49.9234 96.6226 50.0682 96.4344 50.2206L96.5719 50.4644L95.1418 51.2746C94.2668 52.021 93.424 52.7917 92.6133 53.5865L94.7101 57.2914L90.9775 59.406L89.5253 56.8422C89.3575 57.0298 89.1922 57.2249 89.0344 57.4175L90.3592 59.755L86.6419 61.8771L86.2165 61.1331C86.069 61.3559 85.9164 61.5762 85.7689 61.7989L86.016 62.2287L85.1941 62.6975C84.9343 63.11 84.6845 63.5275 84.4398 63.9476L86.3701 62.8495L88.4847 66.582L84.732 68.6867L83.2492 66.0702C83.1221 66.3281 83 66.5759 82.8679 66.844L84.1162 69.0433L81.2383 70.6738C81.0447 71.207 80.8612 71.7452 80.6828 72.2859L82.6012 75.664L79.4367 77.455C79.388 77.7579 79.3493 78.0406 79.3007 78.3561L82.9502 76.2823L85.0699 80.0173L81.3374 82.1319L79.2789 78.5024C79.2257 78.9037 79.1776 79.3075 79.1496 79.696L80.719 82.4683L78.9821 83.4417C78.9887 83.7089 78.9953 83.9762 79.0069 84.2459L81.0579 83.0817L83.1725 86.8142L79.5632 88.8575C79.7873 89.9548 80.074 91.0384 80.4217 92.103L81.2879 93.6362L81.029 93.7789L81.3229 94.4581L81.6623 94.267L83.7769 97.9995L83.3093 98.2594C83.4341 98.4655 83.5613 98.6665 83.6961 98.8649L84.131 98.6203L85.9654 101.863C86.5979 102.589 87.2677 103.282 87.9721 103.939L87.2205 102.62L90.953 100.505L93.0626 104.235L90.2173 105.85C90.42 106.013 90.6277 106.165 90.8404 106.321L93.442 104.868L95.5566 108.601L95.0489 108.891L95.8227 109.272L95.9107 109.222L95.9846 109.352C96.3487 109.532 96.7129 109.711 97.0945 109.855L96.5315 108.867L100.264 106.753L102.379 110.485L101.001 111.265C101.325 111.361 101.643 111.455 101.966 111.539L102.733 111.106L103.151 111.84L104.09 112.051L103.326 110.719L106.684 108.816L108.798 112.549L108.544 112.694C108.966 112.732 109.387 112.77 109.813 112.798L113.498 110.703L114.711 112.847L115.512 112.802L114.111 110.377L117.844 108.262L119.747 111.62L118.005 112.604C118.663 112.545 119.27 112.448 119.91 112.348L120.094 112.244L120.134 112.314L120.883 112.186L120.715 111.89L124.447 109.775L125.262 111.208L125.985 111.017L125.083 109.429L128.816 107.314L130.133 109.641L130.807 109.383L129.436 106.96L133.169 104.845L134.751 107.643L135.39 107.329L133.785 104.501L137.517 102.387L139.132 105.244L139.743 104.873L138.135 102.038L141.868 99.9229L143.297 102.444C143.493 102.302 143.684 102.157 143.875 102.012L142.489 99.5688L146.221 97.4542L147.24 99.2135C147.423 99.046 147.599 98.8811 147.779 98.7187L146.855 97.0874L150.587 94.9728L150.931 95.5508C151.104 95.3657 151.267 95.1757 151.435 94.9881L151.233 94.6312L152.208 94.0808C152.617 93.5842 153.02 93.0851 153.408 92.5785L150.879 94.0103L148.976 90.6524L152.668 88.5178L154.268 91.3429C154.423 91.1302 154.576 90.91 154.726 90.6947L153.289 88.1637L157.021 86.0491L157.294 86.5292C157.419 86.2763 157.543 86.0234 157.668 85.7705L157.622 85.685L157.75 85.6162C157.94 85.2318 158.127 84.8525 158.313 84.4731L157.268 85.0642L155.153 81.3317L158.886 79.2171L159.823 80.8735C159.933 80.5753 160.037 80.2746 160.133 79.9765L159.507 78.863L160.693 78.1904C160.782 77.8696 160.868 77.5413 160.95 77.2231L159.16 78.227L157.045 74.4945L160.791 72.405L161.649 73.9282C161.715 73.5395 161.768 73.1508 161.819 72.7546L161.414 72.0459L161.922 71.7554C161.948 71.4729 161.974 71.1903 161.99 70.9027ZM95.3358 56.9145L93.2212 53.182L96.9537 51.0674L99.0683 54.7999L95.3358 56.9145ZM99.6942 54.4483L97.5795 50.7158L101.312 48.6012L103.427 52.3337L99.6942 54.4483ZM104.053 51.9821L101.938 48.2496L105.67 46.135L107.785 49.8675L104.053 51.9821ZM108.411 49.5159L106.294 45.7884L110.026 43.6738L112.143 47.4012L108.411 49.5159ZM112.767 47.0547L110.617 43.33L114.349 41.2153L116.464 44.9478L112.767 47.0547ZM89.1231 66.2051L86.9682 62.4905L90.7007 60.3759L92.8178 64.1034L89.1231 66.2051ZM93.479 63.744L91.3266 60.0243L95.0591 57.9097L97.1737 61.6422L93.479 63.744ZM97.8373 61.2777L95.685 57.5581L99.4175 55.4435L101.532 59.176L97.8373 61.2777ZM102.196 58.8115L100.043 55.0918L103.776 52.9772L105.89 56.7097L102.196 58.8115ZM106.554 56.3453L104.402 52.6256L108.134 50.511L110.249 54.2435L106.554 56.3453ZM110.912 53.8791L108.758 50.1645L112.49 48.0498L114.607 51.7773L110.912 53.8791ZM115.271 51.4128L113.154 47.6854L116.886 45.5708L119.003 49.2982L115.271 51.4128ZM119.627 48.9517L117.512 45.2192L121.245 43.1046L123.359 46.8371L119.627 48.9517ZM123.985 46.4855L121.87 42.753L125.603 40.6383L127.718 44.3709L123.985 46.4855ZM83.2219 75.2972L81.1073 71.5647L84.4653 69.6616L86.5799 73.3941L83.2219 75.2972ZM87.2007 73.04L85.0861 69.3075L88.8186 67.1929L90.9332 70.9254L87.2007 73.04ZM91.5591 70.5738L89.442 66.8463L93.1745 64.7317L95.2916 68.4592L91.5591 70.5738ZM95.915 68.1126L93.8004 64.3801L97.5329 62.2655L99.6475 65.998L95.915 68.1126ZM100.273 65.6464L98.1587 61.9139L101.891 59.7993L104.006 63.5318L100.273 65.6464ZM104.632 63.1802L102.517 59.4476L106.25 57.333L108.364 61.0655L104.632 63.1802ZM108.99 60.7139L106.876 56.9814L110.608 54.8668L112.723 58.5993L108.99 60.7139ZM113.348 58.2477L111.231 54.5203L114.964 52.4057L117.081 56.1331L113.348 58.2477ZM117.707 55.7815L115.59 52.054L119.322 49.9394L121.414 53.6292L117.707 55.7815ZM122.063 53.3203L119.948 49.5878L123.681 47.4732L125.795 51.2057L122.063 53.3203ZM126.421 50.8541L124.307 47.1216L128.039 45.007L130.154 48.7395L126.421 50.8541ZM130.779 48.3879L128.624 44.6102L132.357 42.4956L134.469 46.2332L130.779 48.3879ZM135.138 45.9216L133.023 42.1891L136.756 40.0745L138.87 43.807L135.138 45.9216ZM85.6906 79.6506L83.576 75.9181L86.9441 74.0199L89.0587 77.7524L85.6906 79.6506ZM89.6796 77.3983L87.5649 73.6658L91.3025 71.5537L93.4171 75.2862L89.6796 77.3983ZM94.0379 74.9321L91.9208 71.2046L95.6584 69.0925L97.7755 72.82L94.0379 74.9321ZM98.3988 72.4608L96.2842 68.7283L100.017 66.6263L102.131 70.3588L98.3988 72.4608ZM102.757 69.9946L100.643 66.2621L104.375 64.1475L106.49 67.88L102.757 69.9946ZM107.116 67.5283L105.001 63.7958L108.728 61.6787L110.848 65.4137L107.116 67.5283ZM111.474 65.0621L109.359 61.3296L113.087 59.2125L115.206 62.9475L111.474 65.0621ZM115.832 62.5959L113.715 58.8684L117.448 56.7538L119.565 60.4813L115.832 62.5959ZM120.191 60.1297L118.074 56.4022L121.801 54.2851L123.923 58.0151L120.191 60.1297ZM124.547 57.6685L122.432 53.936L126.159 51.8189L128.274 55.5514L124.547 57.6685ZM128.905 55.2023L126.79 51.4698L130.518 49.3527L132.632 53.0852L128.905 55.2023ZM133.263 52.7361L131.091 48.9686L134.818 46.8515L136.93 50.589L133.263 52.7361ZM137.622 50.2698L135.507 46.5373L139.235 44.4202L141.349 48.1527L137.622 50.2698ZM141.98 47.8036L139.863 44.0762L143.59 41.9591L145.708 45.6865L141.98 47.8036ZM83.8768 86.4949L81.7622 82.7624L85.4947 80.6478L87.5132 84.3455L83.8768 86.4949ZM88.2351 84.0287L86.1256 80.2986L89.4836 78.3955L91.5931 82.1255L88.2351 84.0287ZM92.219 81.7739L90.0084 78.0066L93.7358 75.8895L95.8504 79.622L92.219 81.7739ZM96.5774 79.3077L94.3643 75.5455L98.0917 73.4284L100.209 77.1558L96.5774 79.3077ZM100.936 76.8415L98.7226 73.0793L102.45 70.9622L104.567 74.6896L100.936 76.8415ZM105.292 74.3803L103.081 70.613L106.808 68.4959L108.923 72.2284L105.292 74.3803ZM109.65 71.9141L107.439 68.1468L111.167 66.0297L113.286 69.7395L109.65 71.9141ZM114.008 69.4478L111.798 65.6806L115.525 63.5635L117.64 67.296L114.008 69.4478ZM118.367 66.9816L116.154 63.2194L119.881 61.1023L121.998 64.8298L118.367 66.9816ZM122.725 64.5154L120.522 60.733L124.249 58.6159L126.341 62.3435L122.725 64.5154ZM127.081 62.0542L124.87 58.287L128.598 56.1699L130.715 59.8973L127.081 62.0542ZM131.439 59.588L129.325 55.8555L133.057 53.7409L135.172 57.4734L131.439 59.588ZM135.798 57.1218L133.552 53.3245L137.284 51.2099L139.396 54.9474L135.798 57.1218ZM140.156 54.6556L138.042 50.923L141.774 48.8084L143.889 52.5409L140.156 54.6556ZM144.515 52.1893L142.397 48.4619L146.13 46.3473L148.247 50.0747L144.515 52.1893ZM81.9164 93.2921L79.8018 89.5596L83.5343 87.445L85.6489 91.1775L81.9164 93.2921ZM86.2747 90.8259L84.1601 87.0934L87.8926 84.9788L90.0072 88.7113L86.2747 90.8259ZM90.6331 88.3597L88.5084 84.6222L91.8664 82.7191L93.981 86.4516L90.6331 88.3597ZM94.617 86.1049L92.5024 82.3724L96.2298 80.2553L98.3444 83.9878L94.617 86.1049ZM98.9754 83.6387L96.8633 79.9138L100.591 77.7967L102.708 81.5241L98.9754 83.6387ZM103.334 81.1725L101.217 77.445L104.949 75.3304L107.066 79.0579L103.334 81.1725ZM107.69 78.7113L105.575 74.9788L109.308 72.8642L111.422 76.5967L107.69 78.7113ZM112.048 76.2451L109.913 72.4774L113.64 70.3603L115.753 74.0979L112.048 76.2451ZM116.406 73.7789L114.292 70.0464L118.024 67.9318L120.139 71.6643L116.406 73.7789ZM120.765 71.3126L118.65 67.5801L122.38 65.4706L124.497 69.198L120.765 71.3126ZM125.123 68.8464L122.963 65.0789L126.695 62.9643L128.808 66.7018L125.123 68.8464ZM129.479 66.3853L127.364 62.6528L131.097 60.5381L133.214 64.2656L129.479 66.3853ZM133.837 63.919L131.723 60.1865L135.455 58.0719L137.57 61.8044L133.837 63.919ZM138.196 61.4528L136.018 57.6828L139.75 55.5682L141.863 59.3058L138.196 61.4528ZM142.554 58.9866L140.44 55.2541L144.172 53.1395L146.287 56.872L142.554 58.9866ZM146.913 56.5204L144.795 52.7929L148.528 50.6783L150.645 54.4058L146.913 56.5204ZM151.271 54.0541L149.073 50.2868L152.805 48.1722L154.917 51.9098L151.271 54.0541ZM84.3851 97.6455L82.2705 93.913L86.003 91.7983L88.1176 95.5308L84.3851 97.6455ZM88.7435 95.1792L86.6289 91.4467L90.3614 89.3321L92.476 93.0646L88.7435 95.1792ZM93.1018 92.713L90.9872 88.9805L94.3452 87.0774L96.4598 90.8099L93.1018 92.713ZM97.0806 90.4558L94.966 86.7233L98.6985 84.6086L100.813 88.3412L97.0806 90.4558ZM101.439 87.9895L99.3219 84.2621L103.054 82.1475L105.172 85.8749L101.439 87.9895ZM105.795 85.5284L103.68 81.7959L107.413 79.6813L109.53 83.4087L105.795 85.5284ZM110.153 83.0621L108.039 79.3296L111.771 77.215L113.886 80.9475L110.153 83.0621ZM114.512 80.5959L112.374 76.8333L116.107 74.7187L118.219 78.4562L114.512 80.5959ZM118.87 78.1297L116.755 74.3972L120.488 72.2826L122.603 76.0151L118.87 78.1297ZM123.228 75.6635L121.114 71.931L124.844 69.8214L126.961 73.5489L123.228 75.6635ZM127.587 73.1972L125.429 69.4373L129.162 67.3226L131.274 71.0602L127.587 73.1972ZM131.943 70.7361L129.828 67.0036L133.561 64.889L135.675 68.6215L131.943 70.7361ZM136.301 68.2699L134.186 64.5374L137.919 62.4227L140.034 66.1553L136.301 68.2699ZM140.659 65.8036L138.484 62.0412L142.217 59.9266L144.329 63.6642L140.659 65.8036ZM145.018 63.3374L142.903 59.6049L146.636 57.4903L148.75 61.2228L145.018 63.3374ZM149.376 60.8712L147.259 57.1437L150.994 55.0241L153.109 58.7566L149.376 60.8712ZM153.735 58.405L151.539 54.6452L155.272 52.5306L157.384 56.2681L153.735 58.405ZM86.8638 101.979L84.7492 98.246L88.4817 96.1314L90.5963 99.8639L86.8638 101.979ZM91.2221 99.5123L89.1075 95.7798L92.84 93.6652L94.9547 97.3977L91.2221 99.5123ZM95.5805 97.0461L93.4659 93.3136L96.8239 91.4104L98.9385 95.143L95.5805 97.0461ZM99.5593 94.7888L97.4044 91.0616L101.137 88.947L103.252 92.6795L99.5593 94.7888ZM103.918 92.3226L101.77 88.5802L105.503 86.4656L107.63 90.2107L103.918 92.3226ZM108.276 89.8564L106.119 86.1342L109.851 84.0196L111.968 87.7471L108.276 89.8564ZM112.632 87.3952L110.477 83.668L114.21 81.5534L116.324 85.2859L112.632 87.3952ZM116.99 84.929L114.84 81.1917L118.573 79.0771L120.685 82.8146L116.99 84.929ZM121.349 82.4628L119.194 78.7356L122.926 76.6209L125.041 80.3535L121.349 82.4628ZM125.707 79.9966L123.552 76.2693L127.285 74.1547L129.399 77.8872L125.707 79.9966ZM130.065 77.5303L127.911 73.8031L131.643 71.6885L133.74 75.4186L130.065 77.5303ZM134.424 75.0641L132.266 71.3419L135.999 69.2273L138.116 72.9548L134.424 75.0641ZM138.78 72.6029L136.625 68.8757L140.342 66.7284L142.457 70.4609L138.78 72.6029ZM143.138 70.1367L140.95 66.3996L144.683 64.285L146.795 68.0226L143.138 70.1367ZM147.496 67.6705L145.382 63.938L149.114 61.8234L151.229 65.5559L147.496 67.6705ZM151.855 65.2043L149.738 61.4768L153.397 59.3324L155.512 63.0649L151.855 65.2043ZM156.213 62.7381L154.005 59.0036L157.738 56.889L159.85 60.6265L156.213 62.7381ZM93.6758 103.883L91.5612 100.151L95.2937 98.0363L97.4033 101.766L93.6758 103.883ZM98.0342 101.417L95.9196 97.6847L99.2776 95.7815L101.392 99.514L98.0342 101.417ZM102.013 99.1599L99.8984 95.4274L103.631 93.3128L105.746 97.0453L102.013 99.1599ZM106.371 96.6937L104.252 92.9461L107.984 90.8315L110.101 94.5589L106.371 96.6937ZM110.73 94.2275L108.613 90.5L112.345 88.3854L114.462 92.1129L110.73 94.2275ZM115.086 91.7663L112.971 88.0338L116.704 85.9192L118.818 89.6517L115.086 91.7663ZM119.444 89.3001L117.307 85.55L121.039 83.4354L123.151 87.173L119.444 89.3001ZM123.802 86.8338L121.688 83.1013L125.42 80.9867L127.535 84.7192L123.802 86.8338ZM128.161 84.3676L126.046 80.6351L129.753 78.4828L131.863 82.2128L128.161 84.3676ZM132.519 81.9014L130.362 78.154L134.094 76.0394L136.201 79.7745L132.519 81.9014ZM136.878 79.4352L134.76 75.7077L138.493 73.5931L140.605 77.3181L136.878 79.4352ZM141.233 76.974L139.119 73.2415L142.808 71.0868L144.918 74.8168L141.233 76.974ZM145.592 74.5078L143.417 70.758L147.149 68.6434L149.256 72.3784L145.592 74.5078ZM149.95 72.0416L147.836 68.3091L151.568 66.1944L153.678 69.9245L149.95 72.0416ZM154.309 69.5753L152.191 65.8479L155.926 63.7282L158.036 67.4582L154.309 69.5753ZM96.2103 108.269L94.0957 104.537L97.8231 102.419L99.9377 106.152L96.2103 108.269ZM100.569 105.803L98.4541 102.07L101.736 100.13L103.851 103.862L100.569 105.803ZM104.547 103.546L102.433 99.8131L106.165 97.6985L108.28 101.431L104.547 103.546ZM108.906 101.079L106.718 97.3045L110.448 95.1949L112.56 98.9199L108.906 101.079ZM113.264 98.6132L111.147 94.8857L114.88 92.7711L116.992 96.4961L113.264 98.6132ZM117.623 96.147L115.506 92.4195L119.233 90.3024L121.348 94.0349L117.623 96.147ZM121.978 93.6858L119.773 89.9084L123.526 87.8038L125.635 91.5338L121.978 93.6858ZM126.337 91.2196L124.222 87.4871L127.95 85.37L130.064 89.1025L126.337 91.2196ZM130.695 88.7533L128.581 85.0208L132.214 82.8387L134.329 86.5712L130.695 88.7533ZM135.054 86.2871L132.828 82.5124L136.555 80.3953L138.667 84.1328L135.054 86.2871ZM139.412 83.8209L137.295 80.0934L141.022 77.9763L143.139 81.7038L139.412 83.8209ZM143.768 81.3597L141.658 77.6297L145.269 75.4427L147.384 79.1752L143.768 81.3597ZM148.126 78.8935L145.883 75.1164L149.61 72.9993L151.722 76.7368L148.126 78.8935ZM152.485 76.4273L150.37 72.6948L154.097 70.5777L156.212 74.3102L152.485 76.4273ZM156.843 73.9611L154.726 70.2336L158.461 68.1139L160.576 71.8464L156.843 73.9611ZM148.454 91.0488L150.357 94.4068L146.624 96.5214L144.721 93.1634L148.454 91.0488ZM144.098 93.5099L146.001 96.8679L142.269 98.9825L140.221 95.585L144.098 93.5099ZM139.638 95.9263L141.542 99.2843L137.809 101.399L135.906 98.0409L139.638 95.9263ZM135.28 98.3925L137.183 101.751L133.451 103.865L131.547 100.507L135.28 98.3925ZM130.922 100.859L132.825 104.217L129.092 106.331L127.166 102.981L130.922 100.859ZM126.568 103.315L128.471 106.673L124.739 108.787L122.836 105.429L126.568 103.315ZM122.21 105.781L124.115 109.134L120.383 111.249L118.477 107.896L122.21 105.781ZM154.565 81.6831L156.68 85.4156L152.947 87.5302L150.81 83.8306L154.565 81.6831ZM150.207 84.1493L152.321 87.8818L148.589 89.9964L146.474 86.2639L150.207 84.1493ZM145.848 86.6155L147.966 90.343L144.233 92.4702L142.116 88.7428L145.848 86.6155ZM141.49 89.0818L143.6 92.8496L139.867 94.9642L137.755 91.2266L141.49 89.0818ZM137.134 91.5429L139.249 95.2754L135.516 97.39L133.402 93.6575L137.134 91.5429ZM132.776 94.0092L134.89 97.7417L131.158 99.8563L129.043 96.1238L132.776 94.0092ZM128.417 96.4754L130.532 100.208L126.805 102.325L124.685 98.59L128.417 96.4754ZM124.059 98.9416L126.174 102.674L122.441 104.789L120.327 101.056L124.059 98.9416ZM119.701 101.408L121.818 105.135L118.085 107.25L115.968 103.522L119.701 101.408ZM115.345 103.869L117.515 107.654L113.788 109.771L111.65 106.021L115.345 103.869ZM110.986 106.335L113.101 110.068L109.374 112.185L107.259 108.452L110.986 106.335ZM102.926 110.089L100.811 106.356L104.164 104.451L106.279 108.183L102.926 110.089ZM106.905 107.831L104.79 104.099L108.518 101.982L110.632 105.714L106.905 107.831ZM111.263 105.365L109.184 101.663L112.909 99.5508L115.026 103.278L111.263 105.365ZM115.622 102.899L113.515 99.1892L117.242 97.0721L119.359 100.8L115.622 102.899ZM119.977 100.438L117.873 96.723L121.626 94.5931L123.74 98.3256L119.977 100.438ZM124.336 97.9717L122.229 94.2618L125.956 92.1447L128.071 95.8772L124.336 97.9717ZM128.694 95.5054L126.575 91.7704L130.307 89.6558L132.422 93.3883L128.694 95.5054ZM133.053 93.0392L130.948 89.3243L134.681 87.1971L136.795 90.9296L133.053 93.0392ZM137.411 90.573L135.299 86.8733L139.027 84.7562L141.134 88.4912L137.411 90.573ZM141.769 88.1068L139.662 84.3969L143.395 82.2823L145.512 86.0098L141.769 88.1068ZM146.125 85.6456L144.021 81.9307L147.736 79.8011L149.85 83.5336L146.125 85.6456ZM150.484 83.1794L148.369 79.4847L152.102 77.3701L154.189 81.0952L150.484 83.1794ZM158.564 78.5936L154.837 80.7107L152.717 76.9757L156.45 74.8611L158.564 78.5936Z" fill="url(#paint0_linear_1_219)"/>
<path id="Vector_15" d="M145.4 105.919C144.32 105.07 143.308 104.139 142.373 103.133C140.87 104.198 139.315 105.188 137.713 106.097C116.798 117.924 92.2137 113.994 82.7337 97.2842C74.0641 82.0301 80.9908 61.4557 98.104 48.9625C97.1784 47.9787 96.3653 46.8949 95.6796 45.7311C76.4614 59.6512 68.659 82.7044 78.3274 99.7456C88.8953 118.393 116.342 122.791 139.662 109.579C141.642 108.468 143.558 107.246 145.4 105.919Z" fill="#352E35"/>
<path id="Vector_16" d="M102.023 46.3551L99.3874 43.2459C96.7292 44.8883 94.2053 46.7386 91.8392 48.7794L94.4646 51.8835C96.8187 49.8247 99.3477 47.9749 102.023 46.3551Z" fill="#D1D1D1"/>
<path id="Vector_17" d="M139.436 105.036L142.067 108.143C144.711 106.477 147.221 104.608 149.574 102.551L146.939 99.4422C144.607 101.523 142.096 103.395 139.436 105.036Z" fill="#D1D1D1"/>
<g id="Vector_18" style="mix-blend-mode:soft-light">
<path d="M159.393 53.5559C168.715 69.999 160.258 92.5163 140.523 104.604C141.079 104.325 141.627 104.029 142.167 103.717C162.609 92.1598 170.488 69.5903 160.936 52.7073C151.384 35.8242 126.584 32.8685 109.256 41.2954C104.045 43.8447 99.1341 46.9652 94.613 50.5994C96.9418 49.0755 105.756 43.1161 112.439 40.6642C131.169 33.7573 151.039 38.8346 159.393 53.5559Z" fill="white"/>
</g>
<path id="Vector_19" d="M79.9532 99.0756C70.2006 81.8735 80.1413 64.4691 83.9422 57.5982C73.3288 69.8874 70.8125 86.525 78.435 99.9368C86.7813 114.661 105.587 119.603 121.677 115.972C112.272 117.095 88.6893 114.488 79.9532 99.0756Z" fill="#2B242A"/>
<path id="Vector_20" d="M54.3418 119.96C54.0267 120.109 53.6653 120.128 53.3361 120.013C53.0069 119.898 52.7363 119.658 52.5832 119.344L48.3795 111.93C48.1878 111.637 48.12 111.281 48.1908 110.939C48.2617 110.597 48.4654 110.297 48.7572 110.104C49.0721 109.953 49.4341 109.933 49.7637 110.048C50.0934 110.164 50.3639 110.405 50.5159 110.72L54.717 118.127C54.9083 118.42 54.9762 118.777 54.9059 119.12C54.8357 119.463 54.633 119.765 54.3418 119.96Z" fill="#2B242A"/>
<path id="Vector_21" d="M48.3567 111.117L44.2022 113.473L49.1086 122.125L53.2631 119.769L48.3567 111.117Z" fill="#161013"/>
<path id="Vector_22" d="M49.4479 122.734C49.1319 122.885 48.7691 122.905 48.4386 122.789C48.1081 122.674 47.8369 122.432 47.6841 122.117L43.483 114.709C43.2917 114.416 43.2239 114.059 43.2941 113.716C43.3644 113.373 43.567 113.071 43.8582 112.876C44.1745 112.727 44.5373 112.708 44.8672 112.825C45.1972 112.941 45.4676 113.184 45.6195 113.499L49.8206 120.906C50.0105 121.199 50.0779 121.555 50.0082 121.897C49.9384 122.238 49.7372 122.539 49.4479 122.734Z" fill="#2B242A"/>
</g>
</g>
</g>
</g>
<defs>
<linearGradient id="paint0_linear_1_219" x1="146.427" y1="22.5544" x2="99.6269" y2="118.693" gradientUnits="userSpaceOnUse">
<stop stop-color="#FFFF97" stop-opacity="0.945806"/>
<stop offset="0.456015" stop-color="white"/>
<stop offset="1" stop-color="white" stop-opacity="0.4"/>
</linearGradient>
<clipPath id="clip0_1_219">
<rect width="120.96" height="158.096" fill="white" transform="translate(69.9877) rotate(26.2336)"/>
</clipPath>
</defs>
</svg>
